<svg width="1200" height="630" viewBox="0 0 1200 630" fill="none" xmlns="http://www.w3.org/2000/svg">
  <!-- Background -->
  <rect width="1200" height="630" fill="#E4DCD1"/>
  
  <!-- Decorative gradient overlay -->
  <rect width="1200" height="630" fill="url(#bgGradient)" opacity="0.5"/>
  
  <!-- Left accent bar -->
  <rect x="0" y="0" width="8" height="630" fill="#0F3F4C"/>
  
  <!-- Logo/Icon -->
  <g transform="translate(100, 200)">
    <rect x="0" y="0" width="120" height="120" rx="24" fill="#0F3F4C"/>
    <path d="M35 70L60 25L70 55L85 45L95 70H35Z" fill="#E4DCD1" stroke="#E4DCD1" stroke-width="3" stroke-linejoin="round"/>
    <circle cx="55" cy="85" r="8" fill="#E4DCD1"/>
    <path d="M55 77V65" stroke="#0F3F4C" stroke-width="2"/>
  </g>
  
  <!-- Main Title -->
  <text x="100" y="380" font-family="system-ui, -apple-system, sans-serif" font-size="72" font-weight="700" fill="#0F3F4C">
    WealthMoves OS
  </text>
  
  <!-- Tagline -->
  <text x="100" y="440" font-family="system-ui, -apple-system, sans-serif" font-size="32" font-weight="400" fill="#5A7A82">
    AI-Powered Revenue Operating System
  </text>
  
  <!-- Value proposition -->
  <text x="100" y="500" font-family="system-ui, -apple-system, sans-serif" font-size="24" font-weight="400" fill="#AFA496">
    Turn Your Dream Life Into An Executable Income Plan
  </text>
  
  <!-- Right side feature highlights -->
  <g transform="translate(750, 180)">
    <rect x="0" y="0" width="350" height="60" rx="12" fill="#0F3F4C" opacity="0.1"/>
    <text x="20" y="38" font-family="system-ui, -apple-system, sans-serif" font-size="18" font-weight="600" fill="#0F3F4C">✦ Dream Life Blueprint</text>
    
    <rect x="0" y="80" width="350" height="60" rx="12" fill="#0F3F4C" opacity="0.1"/>
    <text x="20" y="118" font-family="system-ui, -apple-system, sans-serif" font-size="18" font-weight="600" fill="#0F3F4C">✦ AI Revenue Coach</text>
    
    <rect x="0" y="160" width="350" height="60" rx="12" fill="#0F3F4C" opacity="0.1"/>
    <text x="20" y="198" font-family="system-ui, -apple-system, sans-serif" font-size="18" font-weight="600" fill="#0F3F4C">✦ 30-Day Revenue Sprints</text>
    
    <rect x="0" y="240" width="350" height="60" rx="12" fill="#0F3F4C" opacity="0.1"/>
    <text x="20" y="278" font-family="system-ui, -apple-system, sans-serif" font-size="18" font-weight="600" fill="#0F3F4C">✦ Done-With-You Systems</text>
  </g>
  
  <!-- Bottom URL -->
  <text x="100" y="580" font-family="system-ui, -apple-system, sans-serif" font-size="20" font-weight="500" fill="#0F3F4C" opacity="0.8">
    wealthmoves-os.vercel.app
  </text>
  
  <!-- Gradient definition -->
  <defs>
    <linearGradient id="bgGradient" x1="0" y1="0" x2="1200" y2="630" gradientUnits="userSpaceOnUse">
      <stop offset="0%" stop-color="#0F3F4C" stop-opacity="0.03"/>
      <stop offset="100%" stop-color="#0F3F4C" stop-opacity="0"/>
    </linearGradient>
  </defs>
</svg>